<?xml version="1.0" encoding="UTF-8" standalone="no"?>
<!-- Generator: Adobe Illustrator 19.2.1, SVG Export Plug-In . SVG Version: 6.00 Build 0)  -->

<svg
   version="1.1"
   id="layer"
   viewBox="0 0 600 200"
   style="overflow: hidden;"
   xmlns:svg="http://www.w3.org/2000/svg">
   <defs
   id="defs51621" />
<style
   type="text/css"
   id="style51584">
	.st0{fill:#FFFFFF;}
</style>

<path
   class="st0"
   d="M 446.1,200 V 54.3 h 49.3 v 114.8 h 64 v 31.2"
   id="path51588" />
<path
   class="st0"
   d="m 302,200.2 c -21.8,-15.7 -32.1,-42 -32.1,-67.2 0,-41.7 28,-84.4 81,-84.4 23.6,0 46.1,8.3 62.6,25 6.6,6.9 9.8,12 13,18.2 L 385,112.2 c -3.9,-9.3 -11.5,-25.8 -32.4,-25.8 -10.8,0 -17.7,5.2 -21.1,8.3 -11.8,11.3 -11.8,28.9 -11.8,35.1 0,23.1 8.6,44.9 32.9,44.9 23.1,0 29.9,-20.4 31.6,-25.5 l 42,20.4 c -3.9,7.4 -7.9,14.5 -15.2,22.1 -3.2,3.2 -6.6,5.9 -10.3,8.3"
   id="path51590" />
<path
   class="st0"
   d="m 132,200.2 c -2.2,-1.5 -3.9,-2.9 -5.9,-4.7 -15.5,-15 -15.7,-32.4 -16.2,-48.6 V 54.5 h 49.6 v 97.1 c 0,6.6 0.2,13.5 5.6,18.6 3.9,4.2 10.1,5.6 15.7,5.6 7.9,0 12.8,-2.9 15.7,-5.4 5.6,-5.4 5.9,-12.3 5.9,-18.9 v -97 h 49.8 v 82.7 c 0,17.9 0,41 -18.4,58.4 -1.7,1.7 -3.7,3.2 -5.9,4.7"
   id="path51592" />
<g
   id="g51616"
   transform="translate(-20.5,-221.5)">
	<g
   id="g51614">
		<path
   class="st0"
   d="m 105.4,310.9 -26.7,-5.6 c 0,0 -26.5,5.6 -26.7,5.6 -0.2,0 0,0.2 0,0.2 l 0.2,1.5 v 0 0 c 0,0 0.5,0 0.7,0.2 l 0.5,2.2 c 0,0 0,0.2 0.2,0.2 0.2,0 1,0 1,0 H 103 c 0,0 0.7,0 1,0 0.3,0 0.2,0 0.2,0 l 0.5,-2.2 c 0.2,-0.5 0.7,-0.5 0.7,-0.5 v 0 0 l 0.2,-1.5 c 0,0 0,0 0,-0.2 h -0.2 z"
   id="path51594" />
		<path
   class="st0"
   d="m 102.7,315.8 v 0 -0.8 0 h -4.2 v 0 0.7 0 h 0.2 c 0,0 0,0 0,0.2 0,0 0,0.7 0.5,1 v 0.2 c 0,0 0,0 -0.2,0 v 0 0.2 0.2 0 0 0 0 15 l -0.2,0.2 v 0 0.2 0 0 h -0.2 v 0 0.5 h 3.9 v -0.5 0 h -0.2 v 0 0 0 0 l -0.2,-0.2 v -15 0 0 0 0 -0.2 -0.2 0 0 c 0,0 -0.2,-0.2 0,-0.2 0.5,-0.2 0.5,-0.7 0.5,-1 V 316 h 0.2 v -0.2 z"
   id="path51596" />
		<path
   class="st0"
   d="m 93.9,315.8 v 0 -0.8 0 h -4.2 v 0 0.7 0 H 90 c 0,0 0,0 0,0.2 0,0 0,0.7 0.5,1 v 0.2 c 0,0 0,0 -0.2,0 v 0 0.2 0.2 0 0 0 0 15 l -0.2,0.2 v 0 0.2 0 0 h -0.2 v 0 0.5 h 3.9 v -0.5 0 h -0.2 v 0 0 0 0 l -0.2,-0.2 v -15 0 0 0 0 -0.2 -0.2 0 0 c 0,0 -0.2,-0.2 0,-0.2 0.5,-0.2 0.5,-0.7 0.5,-1 V 316 h 0.2 v -0.2 z"
   id="path51598" />
		<path
   class="st0"
   d="m 85.3,315.8 v 0 -0.8 0 h -4.2 v 0 0.7 0 h 0.2 c 0,0 0,0 0,0.2 0,0 0,0.7 0.5,1 v 0.2 c 0,0 0,0 -0.2,0 v 0 0.2 0.2 0 0 0 0 15 l -0.2,0.2 v 0 0.2 0 0 h -0.2 v 0 0.5 h 3.9 v -0.5 0 h -0.2 v 0 0 0 0 l -0.2,-0.2 v -15 0 0 0 0 -0.2 -0.2 0 c 0,0 0,0 -0.2,0 0,0 -0.2,-0.2 0,-0.2 0.2,-0.2 0.5,-0.7 0.5,-1 V 316 h 0.2 z"
   id="path51600" />
		<path
   class="st0"
   d="m 76.5,315.8 v 0 -0.8 0 h -4.2 v 0 0.7 0 h 0.2 c 0,0 0,0 0,0.2 0,0 0,0.7 0.5,1 v 0.2 c 0,0 0,0 -0.2,0 v 0 0.2 0.2 0 0 0 0 15 l -0.2,0.2 v 0 0.2 0 0 h -0.2 v 0 0.5 h 3.9 v -0.5 0 H 76 v 0 0 0 0 l -0.2,-0.2 v -15 0 0 0 0 -0.2 -0.2 0 0 c 0,0 -0.2,-0.2 0,-0.2 0.5,-0.2 0.5,-0.7 0.5,-1 V 316 h 0.2 z"
   id="path51602" />
		<path
   class="st0"
   d="m 67.7,315.8 v 0 -0.8 0 h -4.2 v 0 0.7 0 h 0.2 c 0,0 0,0 0,0.2 0,0 0,0.7 0.5,1 v 0.2 c 0,0 0,0 -0.2,0 v 0 0.2 0.2 0 0 0 0 15 l -0.2,0.2 v 0 0.2 0 0 h -0.2 v 0 0.5 h 3.9 v -0.5 0 h -0.2 v 0 0 0 0 l -0.2,-0.2 v -15 0 0 0 0 -0.2 -0.2 0 c 0,0 0,0 -0.2,0 0,0 -0.2,-0.2 0,-0.2 0.5,-0.2 0.5,-0.7 0.5,-1 V 316 h 0.2 z"
   id="path51604" />
		<path
   class="st0"
   d="m 59.1,315.8 v 0 -0.8 0 h -4.2 v 0 0.7 0 h 0.2 c 0,0 0,0 0,0.2 0,0 0,0.7 0.5,1 v 0.2 c 0,0 0,0 -0.2,0 v 0 0.2 0.2 0 0 0 0 15 l -0.2,0.2 v 0 0.2 0 0 H 55 v 0 0.5 h 3.9 v -0.5 0 h -0.2 v 0 0 0 0 l -0.2,-0.2 v -15 0 0 0 0 -0.2 -0.2 0 c 0,0 0,0 -0.2,0 0,0 -0.2,-0.2 0,-0.2 0.2,-0.2 0.5,-0.7 0.5,-1 V 316 H 59 Z"
   id="path51606" />
		<g
   id="g51610">
			<path
   class="st0"
   d="m 91.2,299.8 c 0,0 -0.2,0 -0.5,0 v 0 c 0,0 0,-0.2 0,-0.5 v 0 c 0,0 -0.2,0 -0.5,0 v 0 -0.5 0 H 90 c 0,0 -0.2,0 -0.2,-0.2 0,-0.5 0.2,-4.7 -2,-7.4 -1.7,-2.5 -3.9,-3.7 -5.2,-4.4 0,-0.5 -0.7,-0.7 -1.2,-1 -0.2,0 -0.2,-0.2 -0.2,-0.2 v -0.2 c 0,-0.2 0.2,-0.2 0.5,-0.2 h 0.2 v -0.5 c 0,0 0,-0.2 -0.2,-0.2 -0.2,0 -0.2,0 -0.5,0 0,0 -0.2,0 -0.2,-0.2 0,0 0,0 0,-0.2 0,-0.2 0,-0.2 -0.2,-0.2 V 281 c 0,0 0,0 0.2,0 v 0 0 0 -0.2 0 h -0.2 c 0,0 0,0 0,-0.2 0,-0.2 0,-0.2 0,-0.2 v 0 0 -0.5 0 h -0.2 c 0,0 0,0 -0.2,0 -0.5,-0.5 -1,-1 -1,-1 v 0 c 0,0 0,-0.2 -0.2,-0.2 -0.2,0 0,-0.2 0,-0.2 v 0 c 0,0 0,0 0,-0.2 L 79,277.8 v 0 c 0,0 -0.2,0.2 -0.2,0.5 v 0.2 0 0.2 c -0.2,0 -0.2,0 -0.2,0.2 v 0 c 0,0 -0.5,0.7 -1,1 0,0 0,0 -0.2,0 h -0.2 v 0 0.2 0 0 c 0,0 0,0 0,0.2 0,0.2 0,0.2 0,0.2 H 77 v 0 0.2 0 0 0 h 0.2 v 2.9 l -0.2,0.2 c 0,0.2 0,0.2 0,0.2 0,0 0,0.2 -0.2,0.2 0,0 -0.2,0 -0.5,0 0,0 -0.2,0 -0.2,0.2 v 0.5 c 0,0 0,0 0.2,0 0.2,0 0.5,0 0.5,0.2 v 0.2 c 0,0.2 -0.2,0.2 -0.2,0.2 -0.2,0 -1,0.2 -1.2,1 -1.2,0.5 -3.7,2 -5.2,4.4 -2.2,2.9 -2,6.9 -2,7.4 0,0 0,0.2 -0.2,0.2 h -0.2 v 0 0.5 0 h -0.5 v 0 0.5 0 h -0.5 v 0 c 0,0 0,0.2 0,0.5 v 0 c 0.2,0 0.5,0.2 0.5,0.5 0,0.5 0.2,0.5 0.5,0.5 v 1.7 c 0,0.5 -0.2,0.5 -0.5,0.5 v 0 1.7 l 12.3,-2.7 v 0 l 12.3,2.7 v -1.7 0 c -0.2,0 -0.5,-0.2 -0.5,-0.5 V 301 c 0,0 0.5,0 0.5,-0.5 0,-0.2 0.2,-0.5 0.5,-0.5 v 0 c 0,-0.2 0,-0.5 0,-0.5 v 0 z"
   id="path51608" />
		</g>
		<polygon
   class="st0"
   points="102.7,333.9 54.9,333.9 54.9,335.4 52.9,335.4 52.9,339.1 50.7,339.1 50.7,342.5 106.9,342.5 106.9,339.1 104.7,339.1 104.7,335.4 102.7,335.4 "
   id="polygon51612" />
	</g>
</g>
</svg>
