<?xml version="1.0" encoding="utf-8"?>
<!-- Generator: Adobe Illustrator 23.0.6, SVG Export Plug-In . SVG Version: 6.00 Build 0)  -->
<svg version="1.1" id="Layer_1" xmlns="http://www.w3.org/2000/svg" xmlns:xlink="http://www.w3.org/1999/xlink" x="0px" y="0px"
viewBox="0 0 841.89 595.28" preserveAspectRatio="xMidYMid slice" style="enable-background:new 0 0 841.89 595.28;" xml:space="preserve">
<style type="text/css">
.st0{fill:#12233A;}
.st1{fill:#FF5100;}
</style>
<path class="st0" d="M551.94,292.5c0.67,1.16,1.53,2.11,2.58,2.85c1.05,0.74,2.27,1.28,3.64,1.63c1.37,0.35,2.79,0.53,4.27,0.53
c1.05,0,2.16-0.12,3.32-0.37c1.16-0.25,2.21-0.63,3.16-1.16c0.95-0.53,1.74-1.23,2.37-2.11c0.63-0.88,0.95-1.98,0.95-3.32
c0-2.25-1.49-3.93-4.48-5.06c-2.99-1.12-7.15-2.25-12.49-3.37c-2.18-0.49-4.31-1.07-6.38-1.74c-2.07-0.67-3.92-1.55-5.53-2.64
c-1.62-1.09-2.92-2.46-3.9-4.11c-0.98-1.65-1.48-3.67-1.48-6.06c0-3.51,0.69-6.39,2.06-8.64c1.37-2.25,3.18-4.02,5.43-5.32
c2.25-1.3,4.78-2.21,7.59-2.74c2.81-0.53,5.69-0.79,8.64-0.79c2.95,0,5.81,0.28,8.59,0.84c2.78,0.56,5.25,1.51,7.43,2.85
c2.18,1.34,3.99,3.11,5.43,5.32c1.44,2.21,2.3,5.01,2.58,8.38h-14.23c-0.21-2.88-1.3-4.83-3.27-5.85c-1.97-1.02-4.29-1.53-6.96-1.53
c-0.84,0-1.76,0.05-2.74,0.16c-0.98,0.11-1.88,0.33-2.69,0.69c-0.81,0.35-1.49,0.86-2.06,1.53c-0.56,0.67-0.84,1.57-0.84,2.69
c0,1.34,0.49,2.42,1.48,3.27c0.98,0.84,2.27,1.53,3.85,2.06c1.58,0.53,3.39,1,5.43,1.42c2.04,0.42,4.11,0.88,6.22,1.37
c2.18,0.49,4.3,1.09,6.38,1.79c2.07,0.7,3.92,1.63,5.53,2.79c1.62,1.16,2.92,2.6,3.9,4.32c0.98,1.72,1.48,3.85,1.48,6.38
c0,3.58-0.72,6.59-2.16,9.01c-1.44,2.42-3.32,4.37-5.64,5.85c-2.32,1.48-4.97,2.51-7.96,3.11c-2.99,0.6-6.03,0.9-9.12,0.9
c-3.16,0-6.26-0.32-9.28-0.95c-3.02-0.63-5.71-1.69-8.06-3.16c-2.36-1.48-4.29-3.43-5.8-5.85c-1.51-2.42-2.34-5.46-2.48-9.12h14.23
C550.94,289.95,551.27,291.34,551.94,292.5L551.94,292.5z M611.34,251.54v54.5h-14.97v-54.5H611.34L611.34,251.54z M619.14,251.54
h17.08l9.59,14.23l9.49-14.23h16.55l-17.92,25.51l20.13,28.99h-17.08l-11.39-17.18l-11.38,17.18h-16.76l19.61-28.67L619.14,251.54
L619.14,251.54z"/>
<path class="st1" d="M165.58,263.14c-1.79-1.97-4.52-2.95-8.17-2.95c-2.39,0-4.37,0.41-5.96,1.21c-1.58,0.81-2.85,1.81-3.79,3
c-0.95,1.2-1.62,2.46-2,3.79c-0.39,1.34-0.62,2.53-0.69,3.58h24.35C168.62,267.99,167.37,265.1,165.58,263.14L165.58,263.14z
M148.66,291.81c2.25,2.18,5.48,3.27,9.7,3.27c3.02,0,5.62-0.75,7.8-2.27c2.18-1.51,3.51-3.11,4.01-4.8h13.18
c-2.11,6.54-5.34,11.21-9.7,14.02c-4.36,2.81-9.63,4.22-15.81,4.22c-4.29,0-8.15-0.69-11.6-2.06c-3.44-1.37-6.36-3.32-8.75-5.85
c-2.39-2.53-4.23-5.55-5.53-9.07c-1.3-3.51-1.95-7.38-1.95-11.6c0-4.07,0.67-7.87,2-11.39c1.33-3.51,3.23-6.55,5.69-9.12
c2.46-2.56,5.39-4.59,8.8-6.06c3.41-1.48,7.18-2.21,11.33-2.21c4.64,0,8.68,0.9,12.12,2.69c3.44,1.79,6.27,4.2,8.49,7.22
c2.21,3.02,3.81,6.47,4.8,10.33c0.98,3.87,1.33,7.91,1.05,12.12h-39.32C145.18,286.12,146.41,289.63,148.66,291.81L148.66,291.81z
M208.53,229.62v75.27h-14.97v-75.27H208.53L208.53,229.62z M253.28,263.14c-1.79-1.97-4.52-2.95-8.17-2.95
c-2.39,0-4.38,0.41-5.96,1.21c-1.58,0.81-2.85,1.81-3.79,3c-0.95,1.2-1.62,2.46-2,3.79c-0.39,1.34-0.62,2.53-0.69,3.58h24.35
C256.32,267.99,255.07,265.1,253.28,263.14L253.28,263.14z M236.36,291.81c2.25,2.18,5.48,3.27,9.7,3.27c3.02,0,5.62-0.75,7.8-2.27
c2.18-1.51,3.51-3.11,4.01-4.8h13.18c-2.11,6.54-5.34,11.21-9.7,14.02c-4.36,2.81-9.63,4.22-15.81,4.22c-4.29,0-8.15-0.69-11.6-2.06
c-3.44-1.37-6.36-3.32-8.75-5.85c-2.39-2.53-4.23-5.55-5.53-9.07c-1.3-3.51-1.95-7.38-1.95-11.6c0-4.07,0.67-7.87,2-11.39
c1.33-3.51,3.23-6.55,5.69-9.12c2.46-2.56,5.39-4.59,8.8-6.06c3.41-1.48,7.19-2.21,11.33-2.21c4.64,0,8.68,0.9,12.12,2.69
c3.44,1.79,6.27,4.2,8.49,7.22c2.21,3.02,3.81,6.47,4.8,10.33c0.98,3.87,1.33,7.91,1.05,12.12h-39.32
C232.88,286.12,234.11,289.63,236.36,291.81L236.36,291.81z M295.39,250.38v7.38h0.21c1.97-2.81,4.34-4.99,7.12-6.54
c2.78-1.54,5.96-2.32,9.54-2.32c3.44,0,6.59,0.67,9.43,2c2.85,1.34,5.01,3.69,6.48,7.06c1.62-2.39,3.81-4.5,6.59-6.32
c2.78-1.83,6.06-2.74,9.86-2.74c2.88,0,5.55,0.35,8.01,1.05c2.46,0.7,4.57,1.83,6.32,3.37c1.76,1.55,3.13,3.57,4.11,6.06
c0.98,2.5,1.48,5.5,1.48,9.01v36.47h-14.97v-30.89c0-1.83-0.07-3.55-0.21-5.17c-0.14-1.62-0.53-3.02-1.16-4.22
c-0.63-1.19-1.56-2.14-2.79-2.85c-1.23-0.7-2.9-1.05-5.01-1.05c-2.11,0-3.81,0.41-5.11,1.21c-1.3,0.81-2.32,1.86-3.06,3.16
c-0.74,1.3-1.23,2.78-1.48,4.43c-0.25,1.65-0.37,3.32-0.37,5.01v30.36h-14.97v-30.57c0-1.62-0.04-3.22-0.11-4.8
c-0.07-1.58-0.37-3.04-0.9-4.37c-0.53-1.33-1.41-2.41-2.64-3.22c-1.23-0.81-3.04-1.21-5.43-1.21c-0.7,0-1.63,0.16-2.79,0.47
c-1.16,0.32-2.28,0.91-3.37,1.79c-1.09,0.88-2.02,2.14-2.79,3.8c-0.77,1.65-1.16,3.81-1.16,6.48v31.62h-14.97v-54.5H295.39
L295.39,250.38z M409.29,263.14c-1.79-1.97-4.52-2.95-8.17-2.95c-2.39,0-4.37,0.41-5.96,1.21c-1.58,0.81-2.85,1.81-3.79,3
c-0.95,1.2-1.62,2.46-2,3.79c-0.39,1.34-0.62,2.53-0.69,3.58h24.35C412.33,267.99,411.09,265.1,409.29,263.14L409.29,263.14z
M392.37,291.81c2.25,2.18,5.48,3.27,9.7,3.27c3.02,0,5.62-0.75,7.8-2.27c2.18-1.51,3.51-3.11,4.01-4.8h13.18
c-2.11,6.54-5.34,11.21-9.7,14.02c-4.36,2.81-9.63,4.22-15.81,4.22c-4.29,0-8.15-0.69-11.6-2.06c-3.44-1.37-6.36-3.32-8.75-5.85
c-2.39-2.53-4.23-5.55-5.53-9.07c-1.3-3.51-1.95-7.38-1.95-11.6c0-4.07,0.67-7.87,2-11.39c1.33-3.51,3.23-6.55,5.69-9.12
c2.46-2.56,5.39-4.59,8.8-6.06c3.41-1.48,7.18-2.21,11.33-2.21c4.64,0,8.68,0.9,12.12,2.69c3.44,1.79,6.27,4.2,8.49,7.22
c2.21,3.02,3.81,6.47,4.8,10.33c0.98,3.87,1.33,7.91,1.05,12.12h-39.32C388.9,286.12,390.12,289.63,392.37,291.81L392.37,291.81z
M451.09,250.38v7.59h0.32c1.9-3.16,4.36-5.46,7.38-6.9c3.02-1.44,6.11-2.16,9.28-2.16c4.01,0,7.29,0.54,9.86,1.63
c2.56,1.09,4.59,2.6,6.06,4.53c1.48,1.93,2.51,4.29,3.11,7.06c0.6,2.78,0.9,5.85,0.9,9.22v33.52h-14.97V274.1
c0-4.5-0.7-7.85-2.11-10.07c-1.41-2.21-3.9-3.32-7.48-3.32c-4.08,0-7.03,1.21-8.86,3.64c-1.83,2.42-2.74,6.41-2.74,11.96v28.57
h-14.97v-54.5H451.09L451.09,250.38z M529.31,250.38v10.01h-10.96v26.99c0,2.53,0.42,4.22,1.27,5.06c0.84,0.84,2.53,1.26,5.06,1.26
c0.84,0,1.65-0.03,2.42-0.11c0.77-0.07,1.51-0.17,2.21-0.32v11.6c-1.26,0.21-2.67,0.35-4.22,0.42c-1.55,0.07-3.06,0.11-4.53,0.11
c-2.32,0-4.52-0.16-6.59-0.47c-2.07-0.32-3.9-0.93-5.48-1.84c-1.58-0.91-2.83-2.21-3.74-3.9c-0.91-1.69-1.37-3.9-1.37-6.64V260.4
h-9.07v-10.01h9.07v-16.34h14.97v16.34H529.31L529.31,250.38z"/>
<path d="M233.5,345.77v19.58h4.02c6.47,0,11.01-3.5,11.01-9.9c0-6.91-5.53-9.69-10.83-9.69H233.5L233.5,345.77z M235.94,348.01h0.73
c6.68,0,9.43,2.99,9.43,7.56c0,4.81-3.04,7.56-9.48,7.56h-0.68V348.01L235.94,348.01z M263.19,345.77v19.58h10.52v-2.23h-8.08v-7.41
h7.84v-2.23h-7.84v-5.48h8.08v-2.23H263.19L263.19,345.77z M308.44,345.77v19.58h4.65c3.69,0,6.73-1.82,6.73-5.48
c0-2.21-1.58-4.57-3.92-4.96v-0.05c1.24-0.57,2.1-2.18,2.1-3.74c0-3.61-2.36-5.35-7.01-5.35H308.44L308.44,345.77z M310.88,347.95
h0.73c3.12,0,4.11,1.12,4.11,3.22c0,2.11-0.99,3.28-4.13,3.28h-0.7V347.95L310.88,347.95z M310.88,363.18v-6.78h1.33
c2.31,0,5.17,0.52,5.17,3.33c0,2.29-1.64,3.46-4.55,3.46H310.88L310.88,363.18z M334.76,345.77v19.58h10.52v-2.23h-8.08v-7.41h7.84
v-2.23h-7.84v-5.48h8.08v-2.23H334.76L334.76,345.77z M360.5,345.77v19.58h10.52v-2.23h-8.08v-7.41h7.84v-2.23h-7.84v-5.48h8.08
v-2.23H360.5L360.5,345.77z M386.24,345.77v19.58h2.44v-8.29h1.01l5.77,8.29h2.96l-6.18-8.52c2.86-0.36,4.7-2.65,4.7-5.48
c0-2.21-1.19-3.87-2.57-4.67c-1.48-0.86-3.48-0.91-4.83-0.91H386.24L386.24,345.77z M388.68,347.95h0.62c3.64,0,5.35,1.12,5.35,3.51
c0,2.39-1.51,3.59-5.22,3.59h-0.75V347.95L388.68,347.95z M418.16,345.36c-3.14,0-5.77,2.02-5.77,5.06c0,2.75,2.13,4.05,4.26,4.96
l1.35,0.57c2.44,1.04,3.38,2.03,3.38,3.72c0,2.16-1.61,3.82-3.61,3.82c-2.03,0-3.79-1.46-3.79-3.72l-2.47,0.52
c0.47,3.33,3.01,5.48,6.05,5.48c3.33,0,6.26-2.39,6.26-6.1c0-2.55-1.19-4.49-4.85-5.9l-1.43-0.55c-1.74-0.65-2.7-1.56-2.7-2.81
c0-1.69,1.66-2.78,3.27-2.78c1.48,0,2.42,0.62,3.15,1.85l1.95-1.17C422.14,346.42,420.34,345.36,418.16,345.36L418.16,345.36z
M467.25,345.36c-5.79,0-10.16,4.8-10.16,10.26c0,5.64,4.62,10.15,9.9,10.15c5.14,0,9.27-3.71,9.27-9.61v-0.67h-7.77v2.23h5.07
c-0.13,3.25-3.4,5.82-6.42,5.82c-4.1,0-7.61-3.74-7.61-8c0-4.5,3.53-7.95,7.82-7.95c2.44,0,4.73,1.27,6.16,3.2l1.71-1.64
C473.28,346.73,470.29,345.36,467.25,345.36L467.25,345.36z M490.89,345.77v19.58h2.44v-8.29h1.01l5.77,8.29h2.96l-6.18-8.52
c2.86-0.36,4.7-2.65,4.7-5.48c0-2.21-1.19-3.87-2.57-4.67c-1.48-0.86-3.48-0.91-4.83-0.91H490.89L490.89,345.77z M493.33,347.95
h0.62c3.64,0,5.35,1.12,5.35,3.51c0,2.39-1.51,3.59-5.22,3.59h-0.75V347.95L493.33,347.95z M526.09,345.36
c-5.66,0-10.26,4.65-10.26,10.21c0,5.79,4.57,10.21,10.26,10.21c5.79,0,10.26-4.54,10.26-10.21
C536.35,349.72,531.49,345.36,526.09,345.36L526.09,345.36z M518.27,355.57c0-4.49,3.43-7.92,7.79-7.92c4.57,0,7.85,3.56,7.85,7.92
c0,4.49-3.64,7.92-7.82,7.92S518.27,360.06,518.27,355.57L518.27,355.57z M550.59,345.77v12.52c0,3.48,2.13,7.48,7.17,7.48
c4.55,0,7.17-3.4,7.17-7.5v-12.49h-2.44v11.69c0,3.92-1.58,6.03-4.73,6.03c-3.14,0-4.73-2.08-4.73-6.03v-11.69H550.59L550.59,345.77
z M580.51,345.77v19.58h2.44v-8.21h1.22c5.02,0,7.04-2.41,7.04-5.71c0-3.72-2.07-5.66-7.77-5.66H580.51L580.51,345.77z
M582.95,347.95h0.55c2.57,0,5.43,0.36,5.43,3.43c0,2.36-1.46,3.59-5.22,3.59h-0.75V347.95L582.95,347.95z"/>
<path class="st1" d="M708.9,305.99v-10.07h-0.06l-3.95,10.07h-1.26l-3.95-10.07h-0.06v10.07h-1.99v-12.06h3.07l3.6,9.16l3.54-9.16
h3.04v12.06H708.9L708.9,305.99z M691.4,295.54v10.45h-1.99v-10.45h-3.78v-1.61h9.54v1.61H691.4L691.4,295.54z"/>
</svg>
